<svg width="16" height="16" viewBox="0 0 16 16" fill="none" xmlns="http://www.w3.org/2000/svg">
<path d="M8 0C6.41775 0 4.87103 0.469178 3.55544 1.3482C2.23985 2.22723 1.21447 3.47662 0.608967 4.93839C0.00346628 6.40016 -0.15496 8.00864 0.153721 9.56045C0.462403 11.1122 1.22433 12.5377 2.34315 13.6565C3.46197 14.7752 4.88743 15.5372 6.43928 15.8458C7.99113 16.1545 9.59966 15.9961 11.0615 15.3906C12.5233 14.7851 13.7727 13.7598 14.6518 12.4442C15.5308 11.1286 16 9.58197 16 7.99977C15.9978 5.87879 15.1542 3.84531 13.6544 2.34555C12.1546 0.845789 10.121 0.0022398 8 0ZM5.97154 11.0766H10.0285C9.61539 12.4873 8.92308 13.7588 8 14.7603C7.07692 13.7588 6.38462 12.4873 5.97154 11.0766ZM5.69231 9.84587C5.48821 8.6236 5.48821 7.37594 5.69231 6.15367H10.3077C10.5118 7.37594 10.5118 8.6236 10.3077 9.84587H5.69231ZM1.23077 7.99977C1.23024 7.37551 1.31645 6.7542 1.48693 6.15367H4.44539C4.2618 7.37756 4.2618 8.62198 4.44539 9.84587H1.48693C1.31645 9.24534 1.23024 8.62403 1.23077 7.99977ZM10.0285 4.92293H5.97154C6.38462 3.51221 7.07692 2.2407 8 1.23919C8.92308 2.2407 9.61539 3.51221 10.0285 4.92293ZM11.5546 6.15367H14.5131C14.8546 7.36071 14.8546 8.63883 14.5131 9.84587H11.5546C11.7382 8.62198 11.7382 7.37756 11.5546 6.15367ZM14.0285 4.92293H11.3031C10.989 3.68721 10.4616 2.51581 9.74462 1.4615C10.6607 1.70766 11.515 2.1428 12.2528 2.73894C12.9906 3.33509 13.5954 4.07903 14.0285 4.92293ZM6.25539 1.4615C5.53838 2.51581 5.01097 3.68721 4.69693 4.92293H1.97154C2.40456 4.07903 3.00941 3.33509 3.74719 2.73894C4.48497 2.1428 5.33935 1.70766 6.25539 1.4615ZM1.97154 11.0766H4.69693C5.01097 12.3123 5.53838 13.4837 6.25539 14.538C5.33935 14.2919 4.48497 13.8567 3.74719 13.2606C3.00941 12.6645 2.40456 11.9205 1.97154 11.0766ZM9.74462 14.538C10.4616 13.4837 10.989 12.3123 11.3031 11.0766H14.0285C13.5954 11.9205 12.9906 12.6645 12.2528 13.2606C11.515 13.8567 10.6607 14.2919 9.74462 14.538Z" fill="#777777"/>
</svg>
