<svg width="16" height="16" viewBox="0 0 16 16" fill="none" xmlns="http://www.w3.org/2000/svg">
<path d="M15.7656 14.6337C15.8399 14.708 15.8988 14.7963 15.9391 14.8934C15.9793 14.9905 16 15.0946 16 15.1997C16 15.3048 15.9793 15.4089 15.9391 15.506C15.8988 15.6031 15.8399 15.6913 15.7656 15.7657C15.6912 15.84 15.603 15.8989 15.5059 15.9392C15.4088 15.9794 15.3047 16.0001 15.1996 16.0001C15.0945 16.0001 14.9904 15.9794 14.8933 15.9392C14.7962 15.8989 14.708 15.84 14.6336 15.7657L8 9.13099L1.36637 15.7657C1.21626 15.9158 1.01268 16.0001 0.8004 16.0001C0.588121 16.0001 0.384536 15.9158 0.234432 15.7657C0.0843276 15.6156 4.18453e-09 15.412 0 15.1997C-4.18453e-09 14.9874 0.0843276 14.7838 0.234432 14.6337L6.86906 8.00005L0.234432 1.36638C0.0843276 1.21627 0 1.01269 0 0.800405C0 0.588124 0.0843276 0.384538 0.234432 0.234433C0.384536 0.0843281 0.588121 0 0.8004 0C1.01268 0 1.21626 0.0843281 1.36637 0.234433L8 6.8691L14.6336 0.234433C14.7837 0.0843281 14.9873 -4.18456e-09 15.1996 0C15.4119 4.18456e-09 15.6155 0.0843281 15.7656 0.234433C15.9157 0.384538 16 0.588124 16 0.800405C16 1.01269 15.9157 1.21627 15.7656 1.36638L9.13094 8.00005L15.7656 14.6337Z" fill="#DADCDE"/>
</svg>
