<svg width="16" height="16" viewBox="0 0 16 16" fill="none" xmlns="http://www.w3.org/2000/svg">
<path d="M15.4304 3.82816C15.6115 3.24386 15.6696 2.62837 15.601 2.02049C15.5324 1.41262 15.3386 0.825551 15.0319 0.296306C14.9798 0.206201 14.905 0.131381 14.8149 0.0793688C14.7248 0.0273568 14.6226 -1.36691e-05 14.5185 9.69729e-06C13.8283 -0.00143506 13.1473 0.158576 12.5299 0.467257C11.9126 0.775939 11.3759 1.22473 10.963 1.77779H9.18519C8.7722 1.22473 8.23559 0.775939 7.61823 0.467257C7.00086 0.158576 6.31986 -0.00143506 5.62963 9.69729e-06C5.52559 -1.36691e-05 5.42337 0.0273568 5.33326 0.0793688C5.24315 0.131381 5.16832 0.206201 5.1163 0.296306C4.80952 0.825551 4.61572 1.41262 4.54713 2.02049C4.47854 2.62837 4.53665 3.24386 4.71778 3.82816C4.35165 4.4672 4.15553 5.18947 4.14815 5.92593V6.51852C4.14939 7.52119 4.51339 8.48955 5.17291 9.24478C5.83243 10 6.74293 10.4911 7.7363 10.6274C7.33082 11.1463 7.11073 11.7859 7.11111 12.4444V13.037H5.33333C4.86184 13.037 4.40965 12.8497 4.07625 12.5163C3.74286 12.1829 3.55556 11.7308 3.55556 11.2593C3.55556 10.8702 3.47892 10.4849 3.33001 10.1254C3.18111 9.7659 2.96286 9.43927 2.68772 9.16413C2.41259 8.889 2.08595 8.67075 1.72647 8.52184C1.36699 8.37294 0.981694 8.2963 0.592593 8.2963C0.435427 8.2963 0.284699 8.35873 0.173566 8.46987C0.0624337 8.581 0 8.73173 0 8.88889C0 9.04606 0.0624337 9.19679 0.173566 9.30792C0.284699 9.41905 0.435427 9.48149 0.592593 9.48149C1.06409 9.48149 1.51627 9.66879 1.84967 10.0022C2.18307 10.3356 2.37037 10.7878 2.37037 11.2593C2.37037 12.0451 2.68254 12.7987 3.2382 13.3544C3.79387 13.9101 4.54751 14.2222 5.33333 14.2222H7.11111V15.4074C7.11111 15.5646 7.17354 15.7153 7.28468 15.8264C7.39581 15.9376 7.54654 16 7.7037 16C7.86087 16 8.0116 15.9376 8.12273 15.8264C8.23386 15.7153 8.2963 15.5646 8.2963 15.4074V12.4444C8.2963 11.973 8.4836 11.5208 8.817 11.1874C9.15039 10.854 9.60258 10.6667 10.0741 10.6667C10.5456 10.6667 10.9978 10.854 11.3312 11.1874C11.6646 11.5208 11.8519 11.973 11.8519 12.4444V15.4074C11.8519 15.5646 11.9143 15.7153 12.0254 15.8264C12.1366 15.9376 12.2873 16 12.4444 16C12.6016 16 12.7523 15.9376 12.8635 15.8264C12.9746 15.7153 13.037 15.5646 13.037 15.4074V12.4444C13.0374 11.7859 12.8173 11.1463 12.4119 10.6274C13.4052 10.4911 14.3157 10 14.9752 9.24478C15.6348 8.48955 15.9988 7.52119 16 6.51852V5.92593C15.9926 5.18947 15.7965 4.4672 15.4304 3.82816ZM14.8148 6.51852C14.8148 7.30435 14.5026 8.05799 13.947 8.61365C13.3913 9.16932 12.6377 9.48149 11.8519 9.48149H8.2963C7.51047 9.48149 6.75683 9.16932 6.20117 8.61365C5.6455 8.05799 5.33333 7.30435 5.33333 6.51852V5.92593C5.3406 5.33336 5.51801 4.75536 5.84444 4.26075C5.9053 4.18054 5.94471 4.08615 5.95897 3.98649C5.97322 3.88682 5.96185 3.78517 5.92593 3.69112C5.77157 3.29304 5.69729 2.86842 5.70733 2.44158C5.71737 2.01475 5.81154 1.59409 5.98444 1.20371C6.46942 1.25588 6.93643 1.41654 7.35087 1.67377C7.7653 1.93099 8.11653 2.27819 8.37852 2.68964C8.43191 2.77312 8.50538 2.84189 8.59221 2.88964C8.67904 2.93739 8.77646 2.9626 8.87556 2.96297H11.2719C11.3713 2.96297 11.4692 2.93794 11.5564 2.89017C11.6437 2.8424 11.7175 2.77344 11.7711 2.68964C12.0331 2.27816 12.3843 1.93093 12.7987 1.6737C13.2132 1.41646 13.6802 1.25583 14.1652 1.20371C14.3379 1.59419 14.4318 2.0149 14.4416 2.44173C14.4513 2.86857 14.3768 3.29314 14.2222 3.69112C14.1864 3.78427 14.1744 3.88489 14.1874 3.98385C14.2003 4.08281 14.2377 4.17697 14.2963 4.25779C14.626 4.7524 14.806 5.33159 14.8148 5.92593V6.51852Z" fill="#777777"/>
</svg>
