<svg width="386" height="67" viewBox="0 0 386 67" fill="none" xmlns="http://www.w3.org/2000/svg">
<rect x="274" y="49.5" width="16.25" height="16.25" fill="#668EF7" stroke="black" stroke-width="0.8125"/>
<rect x="274" y="33.25" width="16.25" height="16.25" fill="#668EF7" stroke="black" stroke-width="0.8125"/>
<rect x="274" y="17" width="16.25" height="16.25" fill="#668EF7" stroke="black" stroke-width="0.8125"/>
<rect x="305.625" y="49.5" width="16.25" height="16.25" fill="#668EF7" stroke="black" stroke-width="0.8125"/>
<rect x="305.625" y="33.25" width="16.25" height="16.25" fill="#668EF7" stroke="black" stroke-width="0.8125"/>
<rect x="305.625" y="17" width="16.25" height="16.25" fill="#668EF7" stroke="black" stroke-width="0.8125"/>
<rect x="290" y="49.5" width="16.25" height="16.25" fill="#668EF7" stroke="black" stroke-width="0.8125"/>
<rect x="290" y="33.25" width="16.25" height="16.25" fill="#668EF7" stroke="black" stroke-width="0.8125"/>
<rect x="290" y="17" width="16.25" height="16.25" fill="#668EF7" stroke="black" stroke-width="0.8125"/>
<rect x="337.625" y="49.5" width="16.25" height="16.25" fill="#668EF7" stroke="black" stroke-width="0.8125"/>
<rect x="337.625" y="33.25" width="16.25" height="16.25" fill="#668EF7" stroke="black" stroke-width="0.8125"/>
<rect x="337.625" y="17" width="16.25" height="16.25" fill="#668EF7" stroke="black" stroke-width="0.8125"/>
<rect x="369.25" y="49.5" width="16.25" height="16.25" fill="#668EF7" stroke="black" stroke-width="0.8125"/>
<rect x="369.25" y="33.25" width="16.25" height="16.25" fill="#668EF7" stroke="black" stroke-width="0.8125"/>
<rect x="369.25" y="17" width="16.25" height="16.25" fill="#668EF7" stroke="black" stroke-width="0.8125"/>
<rect x="353.625" y="49.5" width="16.25" height="16.25" fill="#668EF7" stroke="black" stroke-width="0.8125"/>
<rect x="353.625" y="33.25" width="16.25" height="16.25" fill="#668EF7" stroke="black" stroke-width="0.8125"/>
<rect x="353.625" y="17" width="16.25" height="16.25" fill="#668EF7" stroke="black" stroke-width="0.8125"/>
<rect x="322" y="49.5" width="16.25" height="16.25" fill="#668EF7" stroke="black" stroke-width="0.8125"/>
<rect x="322" y="33.25" width="16.25" height="16.25" fill="#668EF7" stroke="black" stroke-width="0.8125"/>
<rect x="322" y="17" width="16.25" height="16.25" fill="#668EF7" stroke="black" stroke-width="0.8125"/>
<rect x="1" y="49.5" width="16.25" height="16.25" fill="#668EF7" stroke="black" stroke-width="0.8125"/>
<rect x="1" y="33.25" width="16.25" height="16.25" fill="#668EF7" stroke="black" stroke-width="0.8125"/>
<rect x="1" y="17" width="16.25" height="16.25" fill="#668EF7" stroke="black" stroke-width="0.8125"/>
<rect x="32.625" y="49.5" width="16.25" height="16.25" fill="#668EF7" stroke="black" stroke-width="0.8125"/>
<rect x="32.625" y="33.25" width="16.25" height="16.25" fill="#668EF7" stroke="black" stroke-width="0.8125"/>
<rect x="32.625" y="17" width="16.25" height="16.25" fill="#668EF7" stroke="black" stroke-width="0.8125"/>
<rect x="17" y="49.5" width="16.25" height="16.25" fill="#668EF7" stroke="black" stroke-width="0.8125"/>
<rect x="17" y="33.25" width="16.25" height="16.25" fill="#668EF7" stroke="black" stroke-width="0.8125"/>
<rect x="17" y="17" width="16.25" height="16.25" fill="#668EF7" stroke="black" stroke-width="0.8125"/>
<rect x="64.625" y="49.5" width="16.25" height="16.25" fill="#668EF7" stroke="black" stroke-width="0.8125"/>
<rect x="64.625" y="33.25" width="16.25" height="16.25" fill="#668EF7" stroke="black" stroke-width="0.8125"/>
<rect x="64.625" y="17" width="16.25" height="16.25" fill="#668EF7" stroke="black" stroke-width="0.8125"/>
<rect x="96.25" y="49.5" width="16.25" height="16.25" fill="#668EF7" stroke="black" stroke-width="0.8125"/>
<rect x="96.25" y="33.25" width="16.25" height="16.25" fill="#668EF7" stroke="black" stroke-width="0.8125"/>
<rect x="96.25" y="17" width="16.25" height="16.25" fill="#668EF7" stroke="black" stroke-width="0.8125"/>
<rect x="80.625" y="49.5" width="16.25" height="16.25" fill="#668EF7" stroke="black" stroke-width="0.8125"/>
<rect x="80.625" y="33.25" width="16.25" height="16.25" fill="#668EF7" stroke="black" stroke-width="0.8125"/>
<rect x="80.625" y="17" width="16.25" height="16.25" fill="#668EF7" stroke="black" stroke-width="0.8125"/>
<rect x="49" y="49.5" width="16.25" height="16.25" fill="#668EF7" stroke="black" stroke-width="0.8125"/>
<rect x="49" y="33.25" width="16.25" height="16.25" fill="#668EF7" stroke="black" stroke-width="0.8125"/>
<rect x="49" y="17" width="16.25" height="16.25" fill="#668EF7" stroke="black" stroke-width="0.8125"/>
<path d="M259.627 1.90909V7H258.551V2.93075H258.521L257.355 3.66158V2.70703L258.616 1.90909H259.627ZM262.487 7V1.90909H263.546V3.82315H263.579C263.625 3.72041 263.692 3.616 263.78 3.50994C263.869 3.40223 263.985 3.31274 264.128 3.24148C264.272 3.16856 264.451 3.1321 264.665 3.1321C264.943 3.1321 265.2 3.20502 265.436 3.35085C265.671 3.49503 265.859 3.71295 266 4.00462C266.141 4.29463 266.211 4.65838 266.211 5.09588C266.211 5.52178 266.142 5.88139 266.005 6.17472C265.869 6.46638 265.683 6.68762 265.448 6.83842C265.214 6.98757 264.952 7.06214 264.662 7.06214C264.457 7.06214 264.282 7.02817 264.138 6.96023C263.995 6.89228 263.879 6.80694 263.787 6.70419C263.696 6.59979 263.627 6.49455 263.579 6.38849H263.531V7H262.487ZM263.524 5.09091C263.524 5.31794 263.555 5.51598 263.618 5.68501C263.681 5.85405 263.773 5.9858 263.892 6.08026C264.011 6.17306 264.156 6.21946 264.327 6.21946C264.499 6.21946 264.645 6.17223 264.764 6.07777C264.884 5.98165 264.974 5.84908 265.035 5.68004C265.098 5.50935 265.13 5.31297 265.13 5.09091C265.13 4.8705 265.099 4.67661 265.038 4.50923C264.977 4.34186 264.886 4.21094 264.767 4.11648C264.648 4.02202 264.501 3.97479 264.327 3.97479C264.155 3.97479 264.009 4.02036 263.889 4.11151C263.772 4.20265 263.681 4.33191 263.618 4.49929C263.555 4.66667 263.524 4.86387 263.524 5.09091ZM267.448 8.43182C267.314 8.43182 267.188 8.42105 267.071 8.3995C266.955 8.37962 266.858 8.35393 266.782 8.32244L267.021 7.53196C267.145 7.57008 267.257 7.59079 267.356 7.59411C267.458 7.59742 267.545 7.57422 267.617 7.5245C267.692 7.47479 267.753 7.39027 267.799 7.27095L267.861 7.10938L266.491 3.18182H267.605L268.396 5.9858H268.435L269.233 3.18182H270.354L268.87 7.41264C268.799 7.61813 268.702 7.79711 268.579 7.94957C268.458 8.10369 268.305 8.22218 268.12 8.30504C267.934 8.38956 267.71 8.43182 267.448 8.43182ZM272.927 3.18182V3.97727H270.628V3.18182H272.927ZM271.15 2.26705H272.209V5.8267C272.209 5.92448 272.224 6.00071 272.253 6.0554C272.283 6.10843 272.325 6.14571 272.378 6.16726C272.432 6.1888 272.495 6.19957 272.567 6.19957C272.616 6.19957 272.666 6.19543 272.716 6.18714C272.766 6.1772 272.804 6.16974 272.83 6.16477L272.997 6.95277C272.944 6.96934 272.869 6.9884 272.773 7.00994C272.677 7.03314 272.56 7.04723 272.422 7.0522C272.167 7.06214 271.944 7.02817 271.751 6.95028C271.561 6.8724 271.412 6.75142 271.306 6.58736C271.2 6.4233 271.148 6.21615 271.15 5.96591V2.26705ZM275.316 7.07457C274.923 7.07457 274.585 6.99503 274.302 6.83594C274.02 6.67519 273.803 6.44815 273.65 6.15483C273.498 5.85985 273.422 5.51101 273.422 5.10831C273.422 4.71555 273.498 4.37086 273.65 4.07422C273.803 3.77758 274.018 3.5464 274.294 3.38068C274.573 3.21496 274.899 3.1321 275.274 3.1321C275.526 3.1321 275.76 3.1727 275.977 3.25391C276.196 3.33345 276.387 3.4536 276.549 3.61435C276.713 3.77509 276.841 3.97727 276.932 4.22088C277.023 4.46283 277.068 4.74621 277.068 5.07102V5.36186H273.844V4.70561H276.072C276.072 4.55315 276.039 4.41809 275.972 4.30043C275.906 4.18277 275.814 4.09079 275.696 4.0245C275.58 3.95656 275.445 3.92259 275.291 3.92259C275.13 3.92259 274.988 3.95987 274.864 4.03445C274.741 4.10736 274.645 4.20597 274.575 4.33026C274.506 4.45289 274.47 4.58961 274.468 4.74041V5.36435C274.468 5.55327 274.503 5.7165 274.573 5.85405C274.644 5.9916 274.744 6.09766 274.873 6.17223C275.003 6.2468 275.156 6.28409 275.333 6.28409C275.451 6.28409 275.559 6.26752 275.657 6.23438C275.754 6.20123 275.838 6.15152 275.908 6.08523C275.977 6.01894 276.03 5.93774 276.067 5.84162L277.046 5.90625C276.996 6.14157 276.894 6.34706 276.74 6.52273C276.588 6.69673 276.391 6.83262 276.149 6.9304C275.908 7.02652 275.631 7.07457 275.316 7.07457Z" fill="black"/>
<rect x="128.375" y="33.25" width="16.25" height="16.25" fill="#D9D9D9" stroke="black" stroke-width="0.8125"/>
<rect x="144.625" y="33.25" width="16.25" height="16.25" fill="#D9D9D9" stroke="black" stroke-width="0.8125"/>
<rect x="160.875" y="33.25" width="16.25" height="16.25" fill="#D9D9D9" stroke="black" stroke-width="0.8125"/>
<rect x="128.375" y="49.5" width="16.25" height="16.25" stroke="black" stroke-width="0.8125"/>
<rect x="144.625" y="49.5" width="16.25" height="16.25" stroke="black" stroke-width="0.8125"/>
<rect x="160.875" y="49.5" width="16.25" height="16.25" stroke="black" stroke-width="0.8125"/>
<rect x="209.625" y="49.5" width="16.25" height="16.25" stroke="black" stroke-width="0.8125"/>
<rect x="177.125" y="33.25" width="16.25" height="16.25" fill="#D9D9D9" stroke="black" stroke-width="0.8125"/>
<rect x="193.375" y="33.25" width="16.25" height="16.25" fill="#D9D9D9" stroke="black" stroke-width="0.8125"/>
<rect x="177.125" y="49.5" width="16.25" height="16.25" stroke="black" stroke-width="0.8125"/>
<rect x="193.375" y="49.5" width="16.25" height="16.25" stroke="black" stroke-width="0.8125"/>
<rect x="128.375" y="17" width="16.25" height="16.25" stroke="black" stroke-width="0.8125"/>
<rect x="112.125" y="33.25" width="16.25" height="16.25" fill="#668EF7" stroke="black" stroke-width="0.8125"/>
<rect x="112.125" y="49.5" width="16.25" height="16.25" fill="#668EF7" stroke="black" stroke-width="0.8125"/>
<rect x="112.125" y="17" width="16.25" height="16.25" fill="#668EF7" stroke="black" stroke-width="0.8125"/>
<rect x="144.625" y="17" width="16.25" height="16.25" stroke="black" stroke-width="0.8125"/>
<rect x="160.875" y="17" width="16.25" height="16.25" stroke="black" stroke-width="0.8125"/>
<rect x="177.125" y="17" width="16.25" height="16.25" stroke="black" stroke-width="0.8125"/>
<rect x="193.375" y="17" width="16.25" height="16.25" stroke="black" stroke-width="0.8125"/>
<rect x="225.875" y="49.5" width="16.25" height="16.25" stroke="black" stroke-width="0.8125"/>
<rect x="242.125" y="49.5" width="16.25" height="16.25" stroke="black" stroke-width="0.8125"/>
<rect x="209.625" y="33.25" width="16.25" height="16.25" fill="#D9D9D9" stroke="black" stroke-width="0.8125"/>
<rect x="225.875" y="33.25" width="16.25" height="16.25" fill="#D9D9D9" stroke="black" stroke-width="0.8125"/>
<rect x="242.125" y="33.25" width="16.25" height="16.25" fill="#D9D9D9" stroke="black" stroke-width="0.8125"/>
<rect x="209.625" y="17" width="16.25" height="16.25" stroke="black" stroke-width="0.8125"/>
<rect x="225.875" y="17" width="16.25" height="16.25" stroke="black" stroke-width="0.8125"/>
<rect x="242.125" y="17" width="16.25" height="16.25" stroke="black" stroke-width="0.8125"/>
<rect x="258.375" y="49.5" width="16.25" height="16.25" fill="#668EF7" stroke="black" stroke-width="0.8125"/>
<rect x="258.375" y="33.25" width="16.25" height="16.25" fill="#668EF7" stroke="black" stroke-width="0.8125"/>
<rect x="258.375" y="17" width="16.25" height="16.25" fill="#668EF7" stroke="black" stroke-width="0.8125"/>
<path d="M249.914 38.1941C250.021 38.4486 250.315 38.568 250.569 38.4608L254.716 36.714C254.971 36.6068 255.09 36.3136 254.983 36.0591C254.876 35.8046 254.583 35.6852 254.328 35.7924L250.642 37.3451L249.089 33.6588C248.982 33.4043 248.689 33.2849 248.434 33.3921C248.18 33.4993 248.06 33.7925 248.167 34.047L249.914 38.1941ZM262.537 6.81141L249.912 37.8114L250.838 38.1886L263.463 7.18859L262.537 6.81141Z" fill="black"/>
</svg>
